# xmcd
#
# Track frame offsets:
#  150
#  16223
#  33919
#  51688
#  72105
#  93347
#  112524
#  129684
#  150477
#  166495
#  182875
#  201954
#  221451
#  240823
#  267547
#
# Disc length: 3802 seconds
#
# Revision: 0
# Processed by: cddbd v1.5.1PL2 Copyright (c) Steve Scherf et al.
# Submitted via: Collectorz.com_Music_Collector 6.9
#
DISCID=c80ed80f
DTITLE=Various Artist - Bar Cd# 02/06
DYEAR=2005
DGENRE=Blues
TTITLE0=Andy Cowan - Mountain Mama
TTITLE1=Geoff Achison - Little Big Men
TTITLE2=Blue Shaddy - Mr. Willie Wagtail
TTITLE3=Black and Blues - Tattersall's Blues
TTITLE4=Steven Keir - Mr. Chitty
TTITLE5=Storme Reeves - Hold On
TTITLE6=The Others - Hit The Wall
TTITLE7=Haba Dudes - Whale Reggae
TTITLE8=Mike Beale - Lost
TTITLE9=Thomas Vecera - Afflicted
TTITLE10=Mark Vine - I'll Be The First
TTITLE11=Jetsurfers - Muddy
TTITLE12=Black and Blues - Desert Honey
TTITLE13=Diamond Dave and The Doodaddies - Lonely Part Of Town
TTITLE14=Andy Cowan - Elvis Is King
EXTD=
EXTT0=
EXTT1=
EXTT2=
EXTT3=
EXTT4=
EXTT5=
EXTT6=
EXTT7=
EXTT8=
EXTT9=
EXTT10=
EXTT11=
EXTT12=
EXTT13=
EXTT14=
PLAYORDER=
